<svg id="Layer_1" data-name="Layer 1" xmlns="http://www.w3.org/2000/svg" viewBox="0 0 813 122"><defs><style>.cls-1{fill:#06f;fill-opacity:0.69;}.cls-2{fill:#3af;}</style></defs><title>card_menu_btn_up2</title><g id="DuelCardMenuItemBackground3_0_Layer1_0_FILL" data-name="DuelCardMenuItemBackground3 0 Layer1 0 FILL"><path class="cls-1" d="M811.05,115.45v-103q0-10.35-10.15-10.35H12.2Q2,2.1,2.05,12.45v102.9a8.53,8.53,0,0,1,5.55-3l2.55-.2h792.7l1.4.1C807.32,112.45,809.58,113.52,811.05,115.45Z"/><path class="cls-2" d="M811.05,115.45a11,11,0,0,1,2,6.55V10.4Q813,0,802.85,0H10.15Q0,0,0,10.4V122a10.71,10.71,0,0,1,2.05-6.65V12.45Q2.05,2.1,12.2,2.1H800.9q10.15,0,10.15,10.35Z"/></g></svg>